<?xml version="1.0" encoding="UTF-8" standalone="no"?>
<svg
   xmlns:dc="http://purl.org/dc/elements/1.1/"
   xmlns:cc="http://creativecommons.org/ns#"
   xmlns:rdf="http://www.w3.org/1999/02/22-rdf-syntax-ns#"
   xmlns:svg="http://www.w3.org/2000/svg"
   xmlns="http://www.w3.org/2000/svg"
   xmlns:sodipodi="http://sodipodi.sourceforge.net/DTD/sodipodi-0.dtd"
   xmlns:inkscape="http://www.inkscape.org/namespaces/inkscape"
   viewBox="0 0 640 512"
   version="1.1"
   id="svg4"
   sodipodi:docname="warehouse-alt.svg"
   inkscape:version="0.92.4 (5da689c313, 2019-01-14)">
  <metadata
     id="metadata10">
    <rdf:RDF>
      <cc:Work
         rdf:about="">
        <dc:format>image/svg+xml</dc:format>
        <dc:type
           rdf:resource="http://purl.org/dc/dcmitype/StillImage" />
      </cc:Work>
    </rdf:RDF>
  </metadata>
  <defs
     id="defs8" />
  <sodipodi:namedview
     pagecolor="#ffffff"
     bordercolor="#666666"
     borderopacity="1"
     objecttolerance="10"
     gridtolerance="10"
     guidetolerance="10"
     inkscape:pageopacity="0"
     inkscape:pageshadow="2"
     inkscape:window-width="1280"
     inkscape:window-height="961"
     id="namedview6"
     showgrid="false"
     inkscape:zoom="0.44375"
     inkscape:cx="320"
     inkscape:cy="256"
     inkscape:window-x="-8"
     inkscape:window-y="-8"
     inkscape:window-maximized="1"
     inkscape:current-layer="svg4" />
  <path
     d="M528 352H352V240c0-8.8-7.2-16-16-16H112c-8.8 0-16 7.2-16 16v256c0 8.8 7.2 16 16 16h416c8.8 0 16-7.2 16-16V368c0-8.8-7.2-16-16-16zM320 480H128v-96h192v96zm0-128H128v-96h192v96zm192 128H352v-96h160v96zm98.6-361.7L338.6 3.7c-11.8-5-25.3-5-37.2 0l-272 114.6C11.5 125.8 0 143.2 0 162.5V504c0 4.4 3.6 8 8 8h16c4.4 0 8-3.6 8-8V162.5c0-6.5 3.8-12.2 9.8-14.8l272-114.6c3.9-1.7 8.5-1.7 12.4 0l272 114.6c6 2.5 9.8 8.3 9.8 14.8V504c0 4.4 3.6 8 8 8h16c4.4 0 8-3.6 8-8V162.5c0-19.3-11.5-36.7-29.4-44.2z"
     id="path2"
     style="fill:#ffffff" />
</svg>
